<svg width="400" height="400" viewBox="0 0 400 400" fill="none" xmlns="http://www.w3.org/2000/svg">
<path fill-rule="evenodd" clip-rule="evenodd" d="M81.6 62.2667C80.8 57.4667 83.4667 52.4 88 50C90.8 48.4 115.6 48.1333 236.267 48H381.067L385.2 51.4667C388.667 54.2667 389.333 55.8667 389.333 60.5333C389.333 65.4667 386 72.1333 363.2 111.467C348.8 136.267 323.467 180 306.933 208.667C290.4 237.2 276.8 260.8 276.667 261.067C276.533 261.2 273.867 257.2 270.8 252C267.733 246.8 264.667 242.933 264 243.333L264.4 239.867C265.067 240 274 225.6 284.267 207.733L285.289 205.954C295.47 188.237 309.178 164.381 316.4 152C323.733 139.2 337.2 115.867 346.267 100.267C355.333 84.6667 363.2 70.9333 363.6 69.8667C364.133 68.2667 346.933 68 235.333 68H106.4L109.067 72.2667C109.998 73.7906 112.918 78.8625 116.565 85.1954C118.661 88.8361 120.997 92.8936 123.333 96.9333C129.6 108.133 135.6 117.5 136 117.5L136.5 120.14C135.326 119.403 133.687 121.505 130.133 128C127.2 133.2 124.533 137.333 124.133 137.333C122.533 137.333 82.1333 66 81.6 62.2667Z" fill="#639EBE"/>
<path d="M160 160C148.133 139.067 137.6 121.2 136.8 120.4C136.703 120.292 136.603 120.205 136.5 120.14L136 117.5C136.533 117.5 140.8 110 145.867 101.2C156.267 83.0667 160.133 79.8667 168.267 82.1333C173.733 83.7333 170.8 79.0667 221.733 167.467C244.667 207.2 263.867 239.733 264.4 239.867L264 243.333C263.333 243.733 256.933 254.267 249.867 266.8C242.8 279.2 236.667 289.6 236.133 289.867C235.2 290.533 221.2 266.667 160 160Z" fill="#449181"/>
<path d="M91.3333 195.6C73.7333 226.133 56.8 255.333 53.8667 260.533C14.6667 327.867 10.6667 335.067 10.6667 340C10.6667 343.6 11.6 346 14.1333 348.533L17.7333 352H164.667H311.6L315.2 348.533C321.2 342.4 320.133 338 306.667 314.667C300.133 303.333 290.667 286.933 285.733 278.4C280.8 269.733 276.267 263.2 275.733 263.733C275.333 264.267 268.267 276 260.267 290C248 311.467 245.067 315.733 240.933 317.733C236.667 319.867 235.733 320 231.467 318.133C226.133 315.867 226.133 316 203.067 276C193.6 259.467 172 222.133 155.2 192.933C138.4 163.867 124.4 140 124 140C123.6 140 108.933 165.067 91.3333 195.6Z" fill="#639EBE"/>
</svg>
